<svg width="48" height="48" viewBox="0 0 48 48" fill="none" xmlns="http://www.w3.org/2000/svg">
<g clip-path="url(#clip0_106_31)">
<path fill-rule="evenodd" clip-rule="evenodd" d="M33.6871 13.0956C31.2091 10.7322 27.9021 9.4447 24.4804 9.49761C18.2192 9.49761 12.9016 13.7217 11.0055 19.4097C10.0002 22.3904 10.0002 25.6182 11.0055 28.5989H11.0143C12.9192 34.2781 18.228 38.5022 24.4893 38.5022C27.7213 38.5022 30.496 37.6755 32.6466 36.2154V36.2094C35.1775 34.5339 36.906 31.8971 37.4439 28.9164H24.4805V19.6744H47.118C47.4002 21.2794 47.5325 22.9197 47.5325 24.5512C47.5325 31.8508 44.9237 38.0224 40.3846 42.2024L40.3893 42.2061C36.4121 45.8746 30.9534 47.9999 24.4804 47.9999C15.406 47.9999 7.10767 42.8851 3.03345 34.7808C-0.370533 27.9992 -0.370524 20.0095 3.03347 13.228C7.1077 5.11479 15.406 -9.16524e-05 24.4804 -9.16524e-05C30.4419 -0.070641 36.2005 2.1693 40.5392 6.24352L33.6871 13.0956Z" fill="#202020"/>
</g>
<defs>
<clipPath id="clip0_106_31">
<rect width="48" height="48" fill="white"/>
</clipPath>
</defs>
</svg>
