<svg width="599" height="553" viewBox="0 0 599 553" fill="none" xmlns="http://www.w3.org/2000/svg">
<rect x="122" width="447" height="524" fill="#E9E8E6"/>
<rect x="19" y="198" width="367" height="326" fill="#E9E8E6"/>
<path d="M120.426 0.0013326C112.556 0.256546 105.676 8.2096 105.494 14.9333V179.2H15.8949C7.81675 179.393 1.14556 187.408 0.962891 194.132V485.332C0.962891 522.301 31.1922 552.529 68.1602 552.529H531.094C568.063 552.529 598.291 522.3 598.291 485.332V14.932C598.291 7.11426 591.176 0 583.359 0L120.426 0.0013326ZM135.358 29.8653H568.424V485.332C568.424 506.275 552.034 522.665 531.091 522.665H122.291C129.843 511.801 135.359 499.499 135.359 485.332L135.358 29.8653ZM195.092 74.668C187.186 74.6888 180.343 82.8763 180.16 89.6V194.131C180.16 201.948 187.275 209.063 195.092 209.063H344.426C352.243 209.063 359.358 201.948 359.358 194.131V89.6C359.358 81.7823 352.243 74.668 344.426 74.668H195.092ZM404.159 89.6C395.909 89.6 389.227 96.2875 389.227 104.532C389.227 112.782 395.914 119.464 404.159 119.464H508.69C516.94 119.464 523.622 112.777 523.622 104.532C523.622 96.282 516.934 89.6 508.69 89.6H404.159ZM210.026 104.532H329.495V179.199H210.026V104.532ZM404.159 164.267C395.909 164.267 389.227 170.954 389.227 179.199C389.227 187.449 395.914 194.131 404.159 194.131H508.69C516.94 194.131 523.622 187.443 523.622 179.199C523.622 170.949 516.934 164.267 508.69 164.267H404.159ZM30.8256 209.069H105.492V485.336C105.492 506.279 89.1016 522.669 68.1589 522.669C47.2162 522.669 30.8256 506.279 30.8256 485.336V209.069ZM195.092 253.872C186.842 253.872 180.16 260.559 180.16 268.804C180.16 277.054 186.848 283.736 195.092 283.736H508.692C516.942 283.736 523.624 277.049 523.624 268.804C523.624 260.554 516.937 253.872 508.692 253.872H195.092ZM195.092 336.008C186.842 336.008 180.16 342.695 180.16 350.94C180.16 359.19 186.848 365.872 195.092 365.872H508.692C516.942 365.872 523.624 359.185 523.624 350.94C523.624 342.69 516.937 336.008 508.692 336.008H195.092ZM195.092 418.144C186.842 418.144 180.16 424.831 180.16 433.076C180.16 441.326 186.848 448.008 195.092 448.008H508.692C516.942 448.008 523.624 441.321 523.624 433.076C523.624 424.826 516.937 418.144 508.692 418.144H195.092Z" fill="#202020"/>
</svg>
