<svg xmlns="http://www.w3.org/2000/svg" viewBox="0 0 152.66 180.56"><defs><style>.cls-1{fill:#e9e8e6;}</style></defs><title>Asset 1period</title><g id="Layer_2" data-name="Layer 2"><g id="Layer_1-2" data-name="Layer 1"><path class="cls-1" d="M149.38,109c-1-12.75-2.75-48.25-12-64-2.45-4.17-13.58-5.67-29-6.26v-31h8.87a1.13,1.13,0,0,0,1.13-1.12V1.13A1.13,1.13,0,0,0,117.25,0H30a1.12,1.12,0,0,0-1.12,1.13v5.5A1.12,1.12,0,0,0,30,7.75h9.63V39.26c-14.34,1.16-24.89,3.4-28,7.24-7.5,9.25-9,44.75-9.75,51.5s-3.82,60.44,0,69.75c5.25,12.81,43.5,12.5,74.38,12.75s64.87,0,72.62-8.5S150.38,121.75,149.38,109ZM74,159.06a54.56,54.56,0,1,1,54.56-54.56A54.56,54.56,0,0,1,74,159.06Z"/><path class="cls-1" d="M76.16,89.55a6.08,6.08,0,0,1-2-.7.64.64,0,0,1-.18-.1c-1.06-.94-1.06-1.5-1.56-2.75s-5.22-27.72-6.16-27.72,4,27.37,3.72,29.35c0,.09,0,.17,0,.26a3.9,3.9,0,0,1-2.19,2.89,14.63,14.63,0,1,0,8.39-1.23Z"/></g></g></svg>