<svg width="48" height="48" viewBox="0 0 48 48" fill="none" xmlns="http://www.w3.org/2000/svg">
<path d="M24.0952 38.4458C16.1216 38.4458 12.4785 34.3839 12.4785 31.4047C12.4774 30.6939 12.7691 30.0142 13.2849 29.5252C13.8008 29.0363 14.4952 28.7814 15.2049 28.8205C18.6188 28.8205 17.7258 33.9414 24.0952 33.9414C27.351 33.9414 29.2635 31.9816 29.2635 30.1403C29.2635 29.0339 28.6313 27.7695 26.4818 27.2637L19.3695 25.4699C13.656 24.0158 12.6602 20.839 12.6602 17.8914C12.6602 11.7748 18.2552 9.56209 23.5815 9.56209C28.489 9.56209 34.3211 12.2727 34.3211 15.9394C34.3211 17.5199 33.0014 18.3655 31.4683 18.3655C28.5522 18.3655 29.0422 14.272 23.1785 14.272C20.2625 14.272 18.7294 15.6391 18.7294 17.5515C18.7294 19.464 20.9974 20.112 22.9889 20.5466L28.2361 21.732C33.9892 23.028 35.5223 26.4024 35.5223 29.6345C35.5223 34.6052 31.6737 38.4458 24.0873 38.4458H24.0952ZM46.1116 27.9276C46.3394 26.6228 46.4531 25.3008 46.4515 23.9763C46.4793 17.3233 43.5561 11.0002 38.4696 6.7117C33.3832 2.42314 26.6571 0.61047 20.1044 1.7623C18.0904 0.602705 15.8061 -0.00516098 13.4821 3.30082e-05C8.71183 0.0291736 4.31477 2.5858 1.92964 6.71709C-0.455484 10.8484 -0.470913 15.9347 1.88911 20.0804C0.572233 27.3162 2.879 34.7385 8.06535 39.9532C13.2517 45.1679 20.6613 47.5151 27.9042 46.2377C29.9158 47.3963 32.1973 48.0042 34.5186 48C39.2865 47.9693 43.6809 45.4137 46.0655 41.2849C48.4501 37.1561 48.4677 32.0727 46.1116 27.9276Z" fill="#E9E8E6"/>
</svg>
