<svg width="24" height="24" viewBox="0 0 24 24" fill="none" xmlns="http://www.w3.org/2000/svg">
<path d="M5.82877 4.53295C5.22877 5.87695 5.46577 8.28495 5.56177 9.96895C4.91377 10.328 4.08177 9.69795 3.61077 9.69795C3.12077 9.69795 2.53577 10.02 2.44377 10.5C2.37777 10.846 2.53277 11.35 3.64477 11.789C4.07477 11.959 5.09777 12.159 5.33477 12.717C5.66777 13.501 3.62477 17.12 0.416768 17.648C0.165768 17.689 -0.0132325 17.913 0.000767532 18.167C0.0567675 19.142 2.24277 19.524 3.21177 19.674C3.31077 19.808 3.39077 20.374 3.51777 20.805C3.57477 20.998 3.72177 21.229 4.09977 21.229C4.59277 21.229 5.41177 20.8489 6.83777 21.0849C8.23577 21.3179 9.54977 23.2999 12.0728 23.2999C14.4178 23.2999 15.8168 21.3089 17.1628 21.0849C17.9418 20.9559 18.6108 20.997 19.3588 21.143C19.8738 21.244 20.3358 21.3 20.4828 20.794C20.6118 20.357 20.6908 19.8019 20.7878 19.6709C21.7478 19.5219 23.9438 19.141 23.9988 18.166C24.0128 17.912 23.8338 17.6889 23.5828 17.6469C20.4288 17.1269 18.3238 13.519 18.6648 12.716C18.9008 12.159 19.9168 11.961 20.3548 11.788C21.1688 11.467 21.5768 11.072 21.5678 10.615C21.5568 10.03 20.8528 9.68095 20.3348 9.68095C19.8078 9.68095 19.0508 10.305 18.4378 9.96695C18.5338 8.26895 18.7698 5.87195 18.1708 4.52895C17.0358 1.98595 14.5108 0.699951 11.9868 0.699951C9.47877 0.699951 6.97277 1.96795 5.82877 4.53295V4.53295Z" fill="#E9E8E6"/>
</svg>
