<svg width="85" height="85" viewBox="0 0 85 85" fill="none" xmlns="http://www.w3.org/2000/svg">
<g clip-path="url(#clip0_87_8)">
<path d="M85 42.5C85 19.0279 65.9721 0 42.5 0C19.0279 0 0 19.0279 0 42.5C0 63.7126 15.5416 81.2954 35.8594 84.4837V54.7852H25.0684V42.5H35.8594V33.1367C35.8594 22.4852 42.2045 16.6016 51.9123 16.6016C56.5607 16.6016 61.4258 17.4316 61.4258 17.4316V27.8906H56.0668C50.7875 27.8906 49.1406 31.1669 49.1406 34.5312V42.5H60.9277L59.0435 54.7852H49.1406V84.4837C69.4584 81.2954 85 63.7126 85 42.5Z" fill="#E9E8E6"/>
</g>
<defs>
<clipPath id="clip0_87_8">
<rect width="85" height="85" fill="white"/>
</clipPath>
</defs>
</svg>
