<svg width="22" height="22" viewBox="0 0 22 22" fill="none" xmlns="http://www.w3.org/2000/svg">
<path d="M11.0002 0.199951C14.8002 0.199951 18.3002 2.19995 20.3002 5.39995H10.9002C8.4002 5.49995 6.4002 7.09995 5.7002 9.39995L2.7002 4.09995C4.7002 1.59995 7.7002 0.199951 11.0002 0.199951V0.199951ZM11.0002 14.8C8.9002 14.8 7.3002 13.1 7.3002 11.1C7.3002 8.99995 9.0002 7.29995 11.0002 7.29995C13.1002 7.29995 14.7002 8.99995 14.7002 11C14.8002 13.1 13.1002 14.8 11.0002 14.8V14.8ZM9.2002 21.7C4.1002 20.8 0.200195 16.3 0.200195 11C0.200195 9.09995 0.700195 7.29995 1.6002 5.69995L5.9002 13.1C6.8002 15.2 8.8002 16.5 11.0002 16.5C11.4002 16.5 11.9002 16.3999 12.3002 16.2999L9.2002 21.7V21.7ZM11.1002 21.7999L15.4002 14.4C16.2002 13.4 16.6002 12.2 16.6002 11C16.6002 9.49995 16.0002 8.09995 15.0002 7.09995H21.2002C21.7002 8.29995 21.9002 9.69995 21.9002 11C21.8002 16.9 17.0002 21.7999 11.1002 21.7999V21.7999Z" fill="#E9E8E6"/>
</svg>
