<svg width="25" height="46" viewBox="0 0 25 46" fill="none" xmlns="http://www.w3.org/2000/svg">
<path fill-rule="evenodd" clip-rule="evenodd" d="M15.5457 1.16972L15.529 10.8624L15.5122 20.5552L14.7295 18.3051C14.7292 18.3043 14.7283 18.3014 14.728 18.3007L13.7165 39.8792C14.711 42.7404 15.2438 44.2678 15.2498 44.2739C15.2576 44.2818 15.8243 44.3167 16.5091 44.3513C18.584 44.4562 21.1552 44.681 23.1057 44.9279C23.5574 44.9851 23.946 45.0143 23.9694 44.993C23.9928 44.9716 24.0056 35.1026 23.9977 23.0619L23.9835 1.16972H15.5457ZM0.28418 1.14087V23.0552C0.28418 35.1082 0.295756 44.9815 0.309928 44.996C0.3241 45.0104 1.05674 44.9399 1.93802 44.8394C2.81929 44.7388 4.03728 44.6138 4.64463 44.5615C5.57611 44.4814 8.35723 44.2992 8.67928 44.2972C8.77296 44.2966 8.77897 43.8042 8.79254 35.0152L8.80687 25.7338L9.47979 27.6735C9.58378 27.9733 9.6164 28.067 9.71772 28.359L10.7289 6.78576C10.5147 6.16861 10.627 6.49258 10.3814 5.7853C9.55523 3.40539 8.85415 1.38679 8.82342 1.29953L8.7675 1.14087H0.28418Z" fill="#E9E8E6" stroke="#E9E8E6" stroke-width="0.310123"/>
<path fill-rule="evenodd" clip-rule="evenodd" d="M0 1L7.9331 24.4177C7.9331 24.4177 14.1912 41.9175 14.2037 41.9294C13.4773 41.8954 14.212 41.9372 14.2037 41.9294C16.4045 42.0325 21.0693 43.7074 23.1382 43.9501L16.2758 23.0705L14.9536 18.3558C18.2126 27.0547 14.1424 16.1949 14.9536 18.3558C14.0773 16.0167 8.83565 1 8.83565 1H0Z" fill="#E9E8E6"/>
</svg>
