<svg width="85" height="85" viewBox="0 0 85 85" fill="none" xmlns="http://www.w3.org/2000/svg">
<g clip-path="url(#clip0_172_53)">
<path d="M42.5 0C19.0254 0 0 19.0254 0 42.5C0 60.5127 11.2061 75.8857 27.0107 82.0781C26.6455 78.708 26.2969 73.5615 27.1602 69.8926C27.9404 66.5723 32.1406 48.7754 32.1406 48.7754C32.1406 48.7754 30.8623 46.2354 30.8623 42.4668C30.8623 36.5566 34.2822 32.1406 38.5488 32.1406C42.168 32.1406 43.9277 34.8633 43.9277 38.1338C43.9277 41.7861 41.6035 47.2314 40.4082 52.2783C39.4121 56.5117 42.5332 59.9649 46.7002 59.9649C54.2539 59.9649 60.0644 51.9961 60.0644 40.5078C60.0644 30.3311 52.7598 23.209 42.3174 23.209C30.2314 23.209 23.126 32.2734 23.126 41.6533C23.126 45.3057 24.5371 49.2236 26.2969 51.3486C26.6455 51.7637 26.6953 52.1455 26.5957 52.5606C26.2803 53.9053 25.5498 56.7939 25.417 57.375C25.2344 58.1553 24.8027 58.3213 23.9893 57.9395C18.6768 55.4658 15.3564 47.7129 15.3564 41.4707C15.3564 28.0566 25.1016 15.7549 43.4297 15.7549C58.1719 15.7549 69.627 26.2637 69.627 40.3086C69.627 54.9512 60.3965 66.7383 47.5801 66.7383C43.2803 66.7383 39.2295 64.4971 37.835 61.8574C37.835 61.8574 35.71 69.9756 35.1953 71.9678C34.2324 75.6533 31.6426 80.2852 29.916 83.1074C33.9004 84.3359 38.1172 85 42.5 85C65.9746 85 85 65.9746 85 42.5C85 19.0254 65.9746 0 42.5 0Z" fill="#E9E8E6"/>
</g>
<defs>
<clipPath id="clip0_172_53">
<rect width="85" height="85" fill="white"/>
</clipPath>
</defs>
</svg>
