<svg width="720" height="716" viewBox="0 0 720 716" fill="none" xmlns="http://www.w3.org/2000/svg">
<path d="M18.9538 37.9077C8.49093 37.9077 0 29.4221 0 18.9538C0 8.49092 8.48551 0 18.9538 0H112.162C121.732 0 129.636 7.08982 130.925 16.2997L163.816 184.792H701.098L704.582 185.167C714.833 187.081 721.59 196.973 719.676 207.224L660.568 521.66C658.913 530.415 651.22 537.05 641.994 537.05L209.781 537.039C205.16 537.362 202.326 537.684 198.768 541.29C196.304 543.77 194.777 547.285 194.777 551.208C194.777 555.11 196.31 558.621 198.779 561.116C201.301 563.67 204.769 565.277 208.517 565.361L631.811 565.282C642.274 565.282 650.765 573.768 650.765 584.236C650.765 594.699 642.28 603.19 631.811 603.19L208.355 603.11C194.096 602.957 181.227 597.115 171.981 587.768C162.628 578.33 156.86 565.399 156.86 551.213C156.86 537.018 162.633 524.086 171.97 514.654C176.168 510.408 181.111 506.893 186.589 504.297C156.781 348.771 126.894 193.34 96.5565 37.9087L18.9538 37.9077ZM520.383 663.868C520.383 649.583 526.22 636.599 535.609 627.192C545.396 617.406 558.502 611.892 572.358 611.892C586.644 611.892 599.628 617.728 609.034 627.118C618.821 636.904 624.335 650.01 624.335 663.867C624.335 678.153 618.498 691.137 609.109 700.543C599.323 710.329 586.216 715.844 572.36 715.844C558.074 715.844 545.09 710.007 535.684 700.618C525.898 690.831 520.383 677.725 520.383 663.868V663.868ZM562.362 653.871C559.845 656.403 558.291 659.94 558.291 663.868C558.291 667.797 559.85 671.334 562.362 673.866C564.894 676.383 568.431 677.937 572.359 677.937C576.288 677.937 579.824 676.377 582.357 673.866C584.874 671.334 586.428 667.797 586.428 663.868C586.428 659.94 584.868 656.403 582.357 653.871C579.824 651.354 576.288 649.8 572.359 649.8C568.431 649.8 564.894 651.36 562.362 653.871V653.871ZM216.012 663.868C216.012 649.583 221.849 636.599 231.238 627.192C241.024 617.406 254.131 611.892 267.987 611.892C282.273 611.892 295.257 617.728 304.663 627.118C314.45 636.904 319.964 650.01 319.964 663.867C319.964 678.153 314.127 691.137 304.738 700.543C294.952 710.329 281.845 715.844 267.989 715.844C253.703 715.844 240.719 710.007 231.313 700.618C221.527 690.831 216.012 677.725 216.012 663.868V663.868ZM257.991 653.871C255.474 656.403 253.92 659.94 253.92 663.868C253.92 667.797 255.479 671.334 257.991 673.866C260.523 676.383 264.06 677.937 267.988 677.937C271.916 677.937 275.453 676.377 277.986 673.866C280.503 671.334 282.057 667.797 282.057 663.868C282.057 659.94 280.497 656.403 277.986 653.871C275.453 651.354 271.916 649.8 267.988 649.8C264.06 649.8 260.523 651.36 257.991 653.871V653.871ZM171.158 222.7L224.171 499.306L626.31 499.317L678.313 222.697L171.158 222.7Z" fill="#E9E8E6"/>
<path d="M158.365 205.324H688.244L638.504 512.897H216.226L158.365 205.324Z" fill="#E9E8E6"/>
<rect x="245.662" y="639.784" width="53.8" height="53.8" fill="#E9E8E6"/>
<rect x="544.1" y="639.784" width="53.8" height="53.8" fill="#E9E8E6"/>
</svg>
