<svg width="48" height="48" viewBox="0 0 48 48" fill="none" xmlns="http://www.w3.org/2000/svg">
<path d="M1.33266 30.7952C4.25254 40.5311 13.2832 47.6307 23.9695 47.6307C37.0203 47.6307 47.6002 37.0507 47.6002 23.9999C47.6002 10.9491 37.0203 0.369141 23.9695 0.369141C11.4466 0.369141 1.199 10.1117 0.389648 22.4299C1.92122 24.9976 2.51568 26.586 1.33119 30.7952H1.33266Z" fill="#E9E8E6"/>
<path d="M22.7518 18.0811L22.754 18.1978L16.9719 26.5978C16.0355 26.5549 15.0962 26.7196 14.2041 27.0866C13.8158 27.2444 13.445 27.4424 13.0979 27.6774L0.400064 22.4439C0.400064 22.4439 0.106156 27.2779 1.33053 30.8801L10.3073 34.5842C10.7503 36.5988 12.1386 38.3652 14.1783 39.2144C15.7829 39.8811 17.5866 39.8837 19.1931 39.2216C20.7997 38.5595 22.0778 37.2868 22.7466 35.6831C23.1035 34.8288 23.2756 33.9087 23.2518 32.9832L31.5174 27.0719L31.7204 27.0756C36.6718 27.0756 40.6964 23.0391 40.6964 18.0811C40.6964 13.1231 36.6792 9.1014 31.7204 9.09106C26.7713 9.09106 22.7444 13.1231 22.7444 18.0811H22.7518ZM21.3635 35.1026C20.2898 37.6872 17.3271 38.9035 14.7521 37.8305C13.6094 37.3503 12.6832 36.4666 12.1497 35.3478L15.0718 36.5589C15.5232 36.7468 16.0072 36.8439 16.4962 36.8447C16.9851 36.8454 17.4694 36.7499 17.9214 36.5634C18.3734 36.3769 18.7843 36.1032 19.1305 35.7579C19.4766 35.4126 19.7514 35.0025 19.939 34.551C20.3189 33.6387 20.3212 32.6128 19.9453 31.6988C19.5693 30.7848 18.846 30.0574 17.9341 29.6764L14.9064 28.4247C16.0717 27.9816 17.3965 27.9669 18.6356 28.4816C19.891 29.0007 20.851 29.9785 21.365 31.2287C21.879 32.4789 21.876 33.8576 21.3576 35.1026M31.7286 24.0737C30.1419 24.0694 28.6217 23.4365 27.5008 22.3135C26.38 21.1906 25.7499 19.6692 25.7485 18.0826C25.7502 16.4962 26.3805 14.9752 27.5014 13.8526C28.6222 12.7299 30.1422 12.0972 31.7286 12.0929C33.3152 12.0968 34.8356 12.7294 35.9567 13.852C37.0778 14.9747 37.7083 16.496 37.7101 18.0826C37.7087 19.6694 37.0784 21.1911 35.9572 22.3141C34.836 23.437 33.3154 24.0698 31.7286 24.0737M27.2476 18.073C27.2466 16.8809 27.719 15.7372 28.5609 14.8932C29.4028 14.0492 30.5453 13.574 31.7374 13.572C34.215 13.572 36.2302 15.588 36.2302 18.073C36.2308 19.2653 35.7579 20.4091 34.9154 21.2529C34.0729 22.0966 32.9298 22.5712 31.7374 22.5724C30.5454 22.5707 29.4029 22.0958 28.5609 21.2521C27.7189 20.4084 27.2462 19.2649 27.2468 18.073H27.2476Z" fill="#202020"/>
</svg>
