<svg width="256" height="256" viewBox="0 0 256 256" fill="none" xmlns="http://www.w3.org/2000/svg">
<path fill-rule="evenodd" clip-rule="evenodd" d="M217.032 38.1585C193.372 14.4702 161.905 1.42054 128.382 1.40649C59.3066 1.40649 3.08978 57.6205 3.06168 126.716C3.05325 148.802 8.82218 170.361 19.7896 189.367L2.01074 254.306L68.4448 236.879C86.7491 246.863 107.358 252.126 128.331 252.132H128.382C128.385 252.132 128.379 252.132 128.382 252.132C197.449 252.132 253.672 195.912 253.7 126.814C253.714 93.33 240.692 61.8468 217.032 38.1585ZM77.4902 131.276C75.925 129.186 64.7046 114.298 64.7046 98.8854C64.7046 83.4725 72.7946 75.8968 75.6637 72.7636C78.5327 69.6305 81.9271 68.8465 84.015 68.8465C86.1028 68.8465 88.1934 68.8662 90.0171 68.9561C91.9392 69.0544 94.5216 68.2255 97.0618 74.3316C99.6723 80.6007 105.933 96.0164 106.717 97.5816C107.501 99.1495 108.021 100.976 106.978 103.067C105.936 105.155 105.413 106.461 103.848 108.29C102.283 110.12 100.56 112.373 99.1496 113.776C97.5817 115.338 95.949 117.032 97.7755 120.166C99.602 123.301 105.885 133.555 115.195 141.859C127.154 152.528 137.245 155.833 140.375 157.401C143.505 158.969 145.332 158.707 147.158 156.617C148.985 154.526 154.987 147.473 157.075 144.34C159.163 141.207 161.251 141.729 164.12 142.772C166.991 143.817 182.385 151.393 185.515 152.958C188.645 154.526 190.733 155.31 191.517 156.617C192.301 157.923 192.301 164.193 189.691 171.507C187.08 178.821 174.57 185.498 168.554 186.394C163.159 187.201 156.333 187.538 148.83 185.152C144.284 183.711 138.45 181.783 130.978 178.557C99.5711 164.993 79.0581 133.367 77.4902 131.276Z" fill="#E9E8E6"/>
</svg>
